<mxfile host="app.diagrams.net" agent="Mozilla/5.0 (Windows NT 10.0; Win64; x64; rv:134.0) Gecko/20100101 Firefox/134.0" version="26.0.9">
  <diagram name="Page-1" id="5XQLopsw4C1lMpjPsjrQ">
    <mxGraphModel>
      <root>
        <mxCell id="0" />
        <mxCell id="1" parent="0" />
        <mxCell id="2" value="User" style="swimlane;fontStyle=1;align=center;verticalAlign=top;childLayout=stackLayout;horizontal=1;startSize=35.55555555555556;horizontalStack=0;resizeParent=1;resizeParentMax=0;resizeLast=0;collapsible=0;marginBottom=0;" vertex="1" parent="1">
          <mxGeometry x="121" y="8" width="134" height="168" as="geometry" />
        </mxCell>
        <mxCell id="3" value="+int userId" style="text;strokeColor=none;fillColor=none;align=left;verticalAlign=top;spacingLeft=4;spacingRight=4;overflow=hidden;rotatable=0;points=[[0,0.5],[1,0.5]];portConstraint=eastwest;" vertex="1" parent="2">
          <mxGeometry y="36" width="134" height="36" as="geometry" />
        </mxCell>
        <mxCell id="4" value="+string name" style="text;strokeColor=none;fillColor=none;align=left;verticalAlign=top;spacingLeft=4;spacingRight=4;overflow=hidden;rotatable=0;points=[[0,0.5],[1,0.5]];portConstraint=eastwest;" vertex="1" parent="2">
          <mxGeometry y="71" width="134" height="36" as="geometry" />
        </mxCell>
        <mxCell id="5" value="+string email" style="text;strokeColor=none;fillColor=none;align=left;verticalAlign=top;spacingLeft=4;spacingRight=4;overflow=hidden;rotatable=0;points=[[0,0.5],[1,0.5]];portConstraint=eastwest;" vertex="1" parent="2">
          <mxGeometry y="107" width="134" height="36" as="geometry" />
        </mxCell>
        <mxCell id="6" style="line;strokeWidth=1;fillColor=none;align=left;verticalAlign=middle;spacingTop=-1;spacingLeft=3;spacingRight=3;rotatable=0;labelPosition=right;points=[];portConstraint=eastwest;strokeColor=inherit;" vertex="1" parent="2">
          <mxGeometry y="142" width="134" height="18" as="geometry" />
        </mxCell>
        <mxCell id="7" value="Booking" style="swimlane;fontStyle=1;align=center;verticalAlign=top;childLayout=stackLayout;horizontal=1;startSize=35.55555555555556;horizontalStack=0;resizeParent=1;resizeParentMax=0;resizeLast=0;collapsible=0;marginBottom=0;" vertex="1" parent="1">
          <mxGeometry x="8" y="729" width="207" height="168" as="geometry" />
        </mxCell>
        <mxCell id="8" value="+int bookingId" style="text;strokeColor=none;fillColor=none;align=left;verticalAlign=top;spacingLeft=4;spacingRight=4;overflow=hidden;rotatable=0;points=[[0,0.5],[1,0.5]];portConstraint=eastwest;" vertex="1" parent="7">
          <mxGeometry y="36" width="207" height="36" as="geometry" />
        </mxCell>
        <mxCell id="9" value="+string checkInDate" style="text;strokeColor=none;fillColor=none;align=left;verticalAlign=top;spacingLeft=4;spacingRight=4;overflow=hidden;rotatable=0;points=[[0,0.5],[1,0.5]];portConstraint=eastwest;" vertex="1" parent="7">
          <mxGeometry y="71" width="207" height="36" as="geometry" />
        </mxCell>
        <mxCell id="10" value="+string checkOutDate" style="text;strokeColor=none;fillColor=none;align=left;verticalAlign=top;spacingLeft=4;spacingRight=4;overflow=hidden;rotatable=0;points=[[0,0.5],[1,0.5]];portConstraint=eastwest;" vertex="1" parent="7">
          <mxGeometry y="107" width="207" height="36" as="geometry" />
        </mxCell>
        <mxCell id="11" style="line;strokeWidth=1;fillColor=none;align=left;verticalAlign=middle;spacingTop=-1;spacingLeft=3;spacingRight=3;rotatable=0;labelPosition=right;points=[];portConstraint=eastwest;strokeColor=inherit;" vertex="1" parent="7">
          <mxGeometry y="142" width="207" height="18" as="geometry" />
        </mxCell>
        <mxCell id="12" value="Room" style="swimlane;fontStyle=1;align=center;verticalAlign=top;childLayout=stackLayout;horizontal=1;startSize=35.55555555555556;horizontalStack=0;resizeParent=1;resizeParentMax=0;resizeLast=0;collapsible=0;marginBottom=0;" vertex="1" parent="1">
          <mxGeometry x="119" y="970" width="138" height="168" as="geometry" />
        </mxCell>
        <mxCell id="13" value="+int roomId" style="text;strokeColor=none;fillColor=none;align=left;verticalAlign=top;spacingLeft=4;spacingRight=4;overflow=hidden;rotatable=0;points=[[0,0.5],[1,0.5]];portConstraint=eastwest;" vertex="1" parent="12">
          <mxGeometry y="36" width="138" height="36" as="geometry" />
        </mxCell>
        <mxCell id="14" value="+int capacity" style="text;strokeColor=none;fillColor=none;align=left;verticalAlign=top;spacingLeft=4;spacingRight=4;overflow=hidden;rotatable=0;points=[[0,0.5],[1,0.5]];portConstraint=eastwest;" vertex="1" parent="12">
          <mxGeometry y="71" width="138" height="36" as="geometry" />
        </mxCell>
        <mxCell id="15" value="+string type" style="text;strokeColor=none;fillColor=none;align=left;verticalAlign=top;spacingLeft=4;spacingRight=4;overflow=hidden;rotatable=0;points=[[0,0.5],[1,0.5]];portConstraint=eastwest;" vertex="1" parent="12">
          <mxGeometry y="107" width="138" height="36" as="geometry" />
        </mxCell>
        <mxCell id="16" style="line;strokeWidth=1;fillColor=none;align=left;verticalAlign=middle;spacingTop=-1;spacingLeft=3;spacingRight=3;rotatable=0;labelPosition=right;points=[];portConstraint=eastwest;strokeColor=inherit;" vertex="1" parent="12">
          <mxGeometry y="142" width="138" height="18" as="geometry" />
        </mxCell>
        <mxCell id="17" value="Hotel" style="swimlane;fontStyle=1;align=center;verticalAlign=top;childLayout=stackLayout;horizontal=1;startSize=35.55555555555556;horizontalStack=0;resizeParent=1;resizeParentMax=0;resizeLast=0;collapsible=0;marginBottom=0;" vertex="1" parent="1">
          <mxGeometry x="171" y="489" width="156" height="168" as="geometry" />
        </mxCell>
        <mxCell id="18" value="+int hotelId" style="text;strokeColor=none;fillColor=none;align=left;verticalAlign=top;spacingLeft=4;spacingRight=4;overflow=hidden;rotatable=0;points=[[0,0.5],[1,0.5]];portConstraint=eastwest;" vertex="1" parent="17">
          <mxGeometry y="36" width="156" height="36" as="geometry" />
        </mxCell>
        <mxCell id="19" value="+string name" style="text;strokeColor=none;fillColor=none;align=left;verticalAlign=top;spacingLeft=4;spacingRight=4;overflow=hidden;rotatable=0;points=[[0,0.5],[1,0.5]];portConstraint=eastwest;" vertex="1" parent="17">
          <mxGeometry y="71" width="156" height="36" as="geometry" />
        </mxCell>
        <mxCell id="20" value="+string location" style="text;strokeColor=none;fillColor=none;align=left;verticalAlign=top;spacingLeft=4;spacingRight=4;overflow=hidden;rotatable=0;points=[[0,0.5],[1,0.5]];portConstraint=eastwest;" vertex="1" parent="17">
          <mxGeometry y="107" width="156" height="36" as="geometry" />
        </mxCell>
        <mxCell id="21" style="line;strokeWidth=1;fillColor=none;align=left;verticalAlign=middle;spacingTop=-1;spacingLeft=3;spacingRight=3;rotatable=0;labelPosition=right;points=[];portConstraint=eastwest;strokeColor=inherit;" vertex="1" parent="17">
          <mxGeometry y="142" width="156" height="18" as="geometry" />
        </mxCell>
        <mxCell id="22" value="Review" style="swimlane;fontStyle=1;align=center;verticalAlign=top;childLayout=stackLayout;horizontal=1;startSize=35.55555555555556;horizontalStack=0;resizeParent=1;resizeParentMax=0;resizeLast=0;collapsible=0;marginBottom=0;" vertex="1" parent="1">
          <mxGeometry x="163" y="248" width="172" height="168" as="geometry" />
        </mxCell>
        <mxCell id="23" value="+int reviewId" style="text;strokeColor=none;fillColor=none;align=left;verticalAlign=top;spacingLeft=4;spacingRight=4;overflow=hidden;rotatable=0;points=[[0,0.5],[1,0.5]];portConstraint=eastwest;" vertex="1" parent="22">
          <mxGeometry y="36" width="172" height="36" as="geometry" />
        </mxCell>
        <mxCell id="24" value="+int rating" style="text;strokeColor=none;fillColor=none;align=left;verticalAlign=top;spacingLeft=4;spacingRight=4;overflow=hidden;rotatable=0;points=[[0,0.5],[1,0.5]];portConstraint=eastwest;" vertex="1" parent="22">
          <mxGeometry y="71" width="172" height="36" as="geometry" />
        </mxCell>
        <mxCell id="25" value="+string comment" style="text;strokeColor=none;fillColor=none;align=left;verticalAlign=top;spacingLeft=4;spacingRight=4;overflow=hidden;rotatable=0;points=[[0,0.5],[1,0.5]];portConstraint=eastwest;" vertex="1" parent="22">
          <mxGeometry y="107" width="172" height="36" as="geometry" />
        </mxCell>
        <mxCell id="26" style="line;strokeWidth=1;fillColor=none;align=left;verticalAlign=middle;spacingTop=-1;spacingLeft=3;spacingRight=3;rotatable=0;labelPosition=right;points=[];portConstraint=eastwest;strokeColor=inherit;" vertex="1" parent="22">
          <mxGeometry y="142" width="172" height="18" as="geometry" />
        </mxCell>
        <mxCell id="27" value="makes" style="curved=1;startArrow=none;endArrow=none;exitX=0;exitY=1;entryX=0.43;entryY=0;" edge="1" parent="1" source="2" target="7">
          <mxGeometry relative="1" as="geometry">
            <Array as="points">
              <mxPoint x="92" y="212" />
              <mxPoint x="92" y="693" />
            </Array>
          </mxGeometry>
        </mxCell>
        <mxCell id="28" value="1" style="edgeLabel;resizable=0;labelBackgroundColor=none;fontSize=12;align=right;verticalAlign=top;" vertex="1" parent="27">
          <mxGeometry x="-1" relative="1" as="geometry" />
        </mxCell>
        <mxCell id="29" value="n" style="edgeLabel;resizable=0;labelBackgroundColor=none;fontSize=12;align=left;verticalAlign=bottom;" vertex="1" parent="27">
          <mxGeometry x="1" relative="1" as="geometry" />
        </mxCell>
        <mxCell id="30" value="for" style="curved=1;startArrow=none;endArrow=none;exitX=0.5;exitY=1;entryX=0.11;entryY=0;" edge="1" parent="1" source="7" target="12">
          <mxGeometry relative="1" as="geometry">
            <Array as="points">
              <mxPoint x="112" y="933" />
            </Array>
          </mxGeometry>
        </mxCell>
        <mxCell id="31" value="1" style="edgeLabel;resizable=0;labelBackgroundColor=none;fontSize=12;align=right;verticalAlign=top;" vertex="1" parent="30">
          <mxGeometry x="-1" relative="1" as="geometry" />
        </mxCell>
        <mxCell id="32" value="1" style="edgeLabel;resizable=0;labelBackgroundColor=none;fontSize=12;align=left;verticalAlign=bottom;" vertex="1" parent="30">
          <mxGeometry x="1" relative="1" as="geometry" />
        </mxCell>
        <mxCell id="33" value="has" style="curved=1;startArrow=none;endArrow=none;exitX=0.59;exitY=1;entryX=0.91;entryY=0;" edge="1" parent="1" source="17" target="12">
          <mxGeometry relative="1" as="geometry">
            <Array as="points">
              <mxPoint x="269" y="693" />
              <mxPoint x="269" y="933" />
            </Array>
          </mxGeometry>
        </mxCell>
        <mxCell id="34" value="1" style="edgeLabel;resizable=0;labelBackgroundColor=none;fontSize=12;align=right;verticalAlign=top;" vertex="1" parent="33">
          <mxGeometry x="-1" relative="1" as="geometry" />
        </mxCell>
        <mxCell id="35" value="n" style="edgeLabel;resizable=0;labelBackgroundColor=none;fontSize=12;align=left;verticalAlign=bottom;" vertex="1" parent="33">
          <mxGeometry x="1" relative="1" as="geometry" />
        </mxCell>
        <mxCell id="36" value="hosts" style="curved=1;startArrow=none;endArrow=none;exitX=0.15;exitY=1;entryX=0.71;entryY=0;" edge="1" parent="1" source="17" target="7">
          <mxGeometry relative="1" as="geometry">
            <Array as="points">
              <mxPoint x="172" y="693" />
            </Array>
          </mxGeometry>
        </mxCell>
        <mxCell id="37" value="1" style="edgeLabel;resizable=0;labelBackgroundColor=none;fontSize=12;align=right;verticalAlign=top;" vertex="1" parent="36">
          <mxGeometry x="-1" relative="1" as="geometry" />
        </mxCell>
        <mxCell id="38" value="n" style="edgeLabel;resizable=0;labelBackgroundColor=none;fontSize=12;align=left;verticalAlign=bottom;" vertex="1" parent="36">
          <mxGeometry x="1" relative="1" as="geometry" />
        </mxCell>
        <mxCell id="39" value="writes" style="curved=1;startArrow=none;endArrow=none;exitX=0.82;exitY=1;entryX=0.5;entryY=0;" edge="1" parent="1" source="2" target="22">
          <mxGeometry relative="1" as="geometry">
            <Array as="points">
              <mxPoint x="248" y="212" />
            </Array>
          </mxGeometry>
        </mxCell>
        <mxCell id="40" value="1" style="edgeLabel;resizable=0;labelBackgroundColor=none;fontSize=12;align=right;verticalAlign=top;" vertex="1" parent="39">
          <mxGeometry x="-1" relative="1" as="geometry" />
        </mxCell>
        <mxCell id="41" value="n" style="edgeLabel;resizable=0;labelBackgroundColor=none;fontSize=12;align=left;verticalAlign=bottom;" vertex="1" parent="39">
          <mxGeometry x="1" relative="1" as="geometry" />
        </mxCell>
        <mxCell id="42" value="of" style="curved=1;startArrow=none;endArrow=none;exitX=0.5;exitY=1;entryX=0.5;entryY=0;" edge="1" parent="1" source="22" target="17">
          <mxGeometry relative="1" as="geometry">
            <Array as="points" />
          </mxGeometry>
        </mxCell>
        <mxCell id="43" value="1" style="edgeLabel;resizable=0;labelBackgroundColor=none;fontSize=12;align=right;verticalAlign=top;" vertex="1" parent="42">
          <mxGeometry x="-1" relative="1" as="geometry" />
        </mxCell>
        <mxCell id="44" value="1" style="edgeLabel;resizable=0;labelBackgroundColor=none;fontSize=12;align=left;verticalAlign=bottom;" vertex="1" parent="42">
          <mxGeometry x="1" relative="1" as="geometry" />
        </mxCell>
      </root>
    </mxGraphModel>
  </diagram>
</mxfile>
